<svg width="197" height="84" viewBox="0 0 197 84" fill="none" xmlns="http://www.w3.org/2000/svg">
<path d="M156.196 1.5L195.696 6.5L156.196 14H116.696L84.196 6.5L114.196 1.5H156.196Z" fill="#FFF6EB" stroke="#65482E" stroke-width="3"/>
<path d="M171.196 83L195.696 6L154.696 14.5H117.696L83.696 6L98.196 83H171.196Z" fill="#65482E" stroke="#65482E"/>
<path d="M89.696 46.5L112.196 40.5V54L109.696 69L104.196 80.5H10.696L6.19604 69L3.69604 59.5V36L10.696 40.5L27.696 46.5L45.696 49H71.196L89.696 46.5Z" fill="#11659C" stroke="#11659C" stroke-width="7"/>
<path d="M96.1109 34.3714L115.696 36.3143L90.0847 43.6L73.5126 47H46.8969L29.3205 43.6L12.7485 36.3143L0.696053 30H16.7659H50.9144L96.1109 34.3714Z" fill="#FFF6EB" stroke="#11659C" stroke-width="3"/>
</svg>
