<svg width="1554" height="706" viewBox="0 0 1554 706" fill="none" xmlns="http://www.w3.org/2000/svg">
<path d="M582.221 248.751H11.2207L129.008 678.265L238.07 690.751H365.551L479.46 669.275L582.221 248.751Z" fill="#FF860D" stroke="#FF860D" stroke-width="12"/>
<path d="M77.2207 301.751L11.2207 245.751L58.2207 225.251L202.221 201.751H369.221L519.221 212.251L582.221 245.751L489.721 301.751L265.221 314.751L77.2207 301.751Z" fill="#11659C" stroke="#FF860D" stroke-width="12"/>
<path d="M445.221 18.2507L296.221 295.751H378.721L521.721 42.7507L500.721 6.75073L445.221 18.2507Z" fill="#65482E" stroke="#65482E" stroke-width="12"/>
<path d="M1143.22 533.751H370.221L529.677 695.061L677.321 699.751H849.901L1004.11 691.685L1143.22 533.751Z" fill="#65482E" stroke="#65482E" stroke-width="12"/>
<path d="M459.569 553.804L370.221 532.494L433.848 524.693L628.79 515.751H854.869L1057.93 519.746L1143.22 532.494L1018 553.804L714.077 558.751L459.569 553.804Z" fill="#FF860D" stroke="#65482E" stroke-width="12"/>
<path d="M1534.72 533.751H1114.72L1068.22 576.251H1513.72L1545.72 563.251L1534.72 533.751Z" fill="#65482E" stroke="#65482E" stroke-width="12"/>
</svg>
