<svg width="372" height="159" viewBox="0 0 372 159" fill="none" xmlns="http://www.w3.org/2000/svg">
<rect x="1" y="1" width="371" height="158" rx="27" fill="#FFF6EB"/>
<path d="M2.99771 55.617C4.62072 50.5429 7.18988 46.0204 9.66524 42.1341C11.6376 39.0376 14.8761 35.4712 19.9602 30.8823C25.0442 26.2934 32.0491 20.9058 37.9123 16.9529C43.7754 12.9999 48.2845 10.6448 54.4851 8.32222C60.6856 5.99961 68.4411 3.78082 72.6822 2.59045C76.9234 1.40009 77.4152 1.30537 78.0476 1.15812C78.6801 1.01086 79.4382 0.813932 78.6878 1.36767L78.5243 1.48832C73.0686 5.5137 70.4817 7.42244 66.7268 15.0537C65.3405 17.8712 64.6215 21.8573 63.9427 26.6885C62.4716 37.1572 62.8256 44.4488 63.2357 47.2011C63.6548 50.0133 66.0224 54.7587 67.7733 59.4582C68.2885 60.8411 62.9286 58.2775 56.5134 56.6479C52.0177 55.5059 44.7915 54.6452 39.1473 54.0397C33.5032 53.4341 29.6057 53.3452 25.4494 53.7357C11.5992 55.0369 9.18604 57.2647 5.94041 59.8423C3.7681 61.5674 2.60905 64.4347 1.68519 65.9913C1.36195 66.5359 1.17542 66.2649 1.10312 65.5334C0.929277 63.7745 1.41599 59.3531 2.25059 57.2082C2.4497 56.6965 2.70371 56.1659 2.99771 55.617Z" fill="#65482E"/>
<path d="M1 67C1 66.9619 1.01163 65.4043 1.71206 60.9755C2.86449 53.6887 6.34904 47.3405 9.66524 42.1341C11.6376 39.0376 14.8761 35.4712 19.9602 30.8823C25.0442 26.2934 32.0491 20.9058 37.9123 16.9529C43.7754 12.9999 48.2845 10.6448 54.4851 8.32222C60.6856 5.99961 68.4411 3.78082 72.6822 2.59045C76.9234 1.40009 77.4152 1.30537 78.0476 1.15812C78.6801 1.01086 79.4382 0.813932 78.6878 1.36767C73.1199 5.47632 70.519 7.3466 66.7268 15.0537C65.3405 17.8712 64.6215 21.8573 63.9427 26.6885C62.4716 37.1572 62.8256 44.4488 63.2357 47.2011C63.6548 50.0133 66.0224 54.7587 67.7733 59.4582C68.2885 60.8411 62.9286 58.2775 56.5134 56.6479C52.0177 55.5059 44.7915 54.6452 39.1473 54.0397C33.5032 53.4341 29.6057 53.3452 25.4494 53.7357C11.5992 55.0369 9.18604 57.2647 5.94041 59.8423C3.7681 61.5674 2.60905 64.4347 1.68519 65.9913C0.584632 67.8456 1.06892 60.2451 2.25059 57.2082C3.31799 54.4651 5.96361 51.1758 7.88676 47.475C9.81398 43.7663 12.0808 41.6269 13.5901 39.4901C14.9062 37.7417 17.6719 34.5238 20.2933 31.8555C21.0794 31.0319 22.305 29.6863 24.1666 27.8134" stroke="#65482E" stroke-width="2" stroke-linecap="round"/>
<line x1="95.999" y1="42" x2="336.001" y2="42" stroke="#65482E" stroke-width="3"/>
<line x1="95.999" y1="61" x2="336.001" y2="61" stroke="#65482E" stroke-width="3"/>
<line x1="95.999" y1="83" x2="336.001" y2="83" stroke="#65482E" stroke-width="3"/>
</svg>
