<svg width="418" height="248" viewBox="0 0 418 248" fill="none" xmlns="http://www.w3.org/2000/svg">
<path d="M43.4989 147.095L5.38126 173.652L24.4401 172.177L66.9559 162.34L104.585 149.062L153.454 127.914L193.526 105.291L221.381 83.652L162.25 94.9635L100.187 120.045L43.4989 147.095Z" fill="#FFF6EB" stroke="#FF860D" stroke-width="3"/>
<path d="M57.5515 246.652L1.38126 175.777L20.1047 174.089L64.36 163.964L103.509 150.464L154.573 128.527L197.126 104.902L222.658 84.652L241.381 179.152L222.658 194.339L178.403 223.027L113.722 243.277L57.5515 246.652Z" fill="#FF860D" stroke="#FF860D"/>
<path d="M232.219 98.1025L221.381 103.652L222.465 83.674L415.381 2.65198L409.962 19.3003L232.219 98.1025Z" fill="#65482E"/>
<path d="M221.381 82.5641V103.652M221.381 103.652L232.219 98.1025L409.962 19.3003L415.381 2.65198L222.465 83.674L221.381 103.652Z" stroke="#65482E" stroke-width="3"/>
<path d="M10.8813 172.652L45.2146 148.512L101.259 121.857L163.867 97.2134L216.881 86.652" stroke="#FF860D" stroke-width="3"/>
<path d="M294.381 173.152H265.881L229.881 168.652L201.881 156.152L226.381 233.652L260.881 238.652H299.381L325.881 233.652L343.381 160.152L329.381 168.652L294.381 173.152Z" fill="#65482E" stroke="#65482E"/>
<path d="M255.343 151.652L206.381 156.052L232.526 169.741L266.276 173.652H294.797L327.121 169.741L341.381 160.452L300.501 151.652H255.343Z" fill="#FF860D" stroke="#65482E" stroke-width="4"/>
<path d="M200.381 155.652L224.881 234.152L261.381 240.152H299.881L326.381 234.152L345.881 160.152L299.881 151.652H254.881L213.381 155.652L200.381 160.152" stroke="#65482E" stroke-width="6"/>
<path d="M198.881 157.152L228.381 152.652L259.381 150.152H300.881L344.381 159.652" stroke="#65482E" stroke-width="6"/>
</svg>
