<svg width="197" height="133" viewBox="0 0 197 133" fill="none" xmlns="http://www.w3.org/2000/svg">
<path d="M40.2357 47.1215L0.735718 52.1215L40.2357 59.6215H79.7357L112.236 52.1215L82.2357 47.1215H40.2357Z" fill="#65482E" stroke="#11659C" stroke-width="3"/>
<path d="M46.2357 56.6215L29.7357 4.62146L6.73572 13.6215" stroke="#FFF6EB" stroke-width="7"/>
<path d="M25.2357 128.621L0.735718 51.6215L41.7357 60.1215H78.7357L112.736 51.6215L98.2357 128.621H25.2357Z" fill="#11659C" stroke="#11659C"/>
<path d="M106.736 95.1215L84.2357 89.1215V102.621L86.7357 117.621L92.2357 129.121H185.736L190.236 117.621L192.736 108.121V84.6215L185.736 89.1215L168.736 95.1215L150.736 97.6215H125.236L106.736 95.1215Z" fill="#FFF6EB" stroke="#FFF6EB" stroke-width="7"/>
<path d="M100.321 82.9929L80.7357 84.9357L106.347 92.2215L122.919 95.6215H149.535L167.111 92.2215L183.683 84.9357L195.736 78.6215H179.666H145.517L100.321 82.9929Z" fill="#11659C" stroke="#FFF6EB" stroke-width="3"/>
</svg>
