<svg width="153" height="96" viewBox="0 0 153 96" fill="none" xmlns="http://www.w3.org/2000/svg">
<path d="M96.8638 26H68.3638L32.3638 21.5L4.36376 9L28.8638 86.5L63.3638 91.5H101.864L128.364 86.5L145.864 13L131.864 21.5L96.8638 26Z" fill="#65482E" stroke="#65482E"/>
<path d="M57.825 4.5L8.86376 8.9L35.0081 22.5889L68.7581 26.5H97.2793L129.603 22.5889L143.864 13.3L102.983 4.5H57.825Z" fill="#FF860D" stroke="#65482E" stroke-width="4"/>
<path d="M2.86376 8.5L27.3638 87L63.8638 93H102.364L128.864 87L148.364 13L102.364 4.5H57.3638L15.8638 8.5L2.86376 13" stroke="#65482E" stroke-width="6"/>
<path d="M1.36376 10L30.8638 5.5L61.8638 3H103.364L146.864 12.5" stroke="#65482E" stroke-width="6"/>
</svg>
